<svg width="198" height="198" viewBox="0 0 198 198" fill="none" xmlns="http://www.w3.org/2000/svg">
<path d="M198 99C198 153.676 153.676 198 99 198C44.3238 198 0 153.676 0 99C0 44.3238 44.3238 0 99 0C153.676 0 198 44.3238 198 99Z" fill="#1D4ED8"/>
<path d="M125.963 95.4168C130.207 87.8056 132.328 84 135.5 84C138.672 84 140.793 87.8056 145.037 95.4168L146.136 97.3866C147.342 99.5507 147.945 100.633 148.883 101.346C149.821 102.06 150.993 102.325 153.338 102.854L155.469 103.336C163.71 105.202 167.827 106.134 168.808 109.286C169.786 112.435 166.979 115.721 161.361 122.291L159.908 123.989C158.313 125.855 157.512 126.79 157.154 127.942C156.795 129.098 156.916 130.344 157.157 132.833L157.378 135.101C158.226 143.868 158.651 148.25 156.085 150.196C153.519 152.146 149.66 150.367 141.949 146.816L139.949 145.898C137.758 144.886 136.662 144.384 135.5 144.384C134.338 144.384 133.242 144.886 131.048 145.898L129.055 146.816C121.34 150.367 117.481 152.143 114.918 150.2C112.349 148.25 112.774 143.868 113.622 135.101L113.843 132.836C114.084 130.344 114.205 129.098 113.843 127.945C113.488 126.79 112.687 125.855 111.092 123.992L109.639 122.291C104.021 115.725 101.214 112.438 102.192 109.286C103.173 106.134 107.294 105.199 115.534 103.336L117.665 102.854C120.007 102.325 121.176 102.06 122.117 101.346C123.055 100.633 123.658 99.5507 124.864 97.3866L125.963 95.4168Z" fill="white"/>
<path d="M53.9628 95.4168C58.2071 87.8056 60.3276 84 63.5 84C66.6724 84 68.7929 87.8056 73.0372 95.4168L74.136 97.3866C75.342 99.5507 75.945 100.633 76.8829 101.346C77.8209 102.06 78.9934 102.325 81.3383 102.854L83.4689 103.336C91.7097 105.202 95.8267 106.134 96.8083 109.286C97.7864 112.435 94.9792 115.721 89.3614 122.291L87.9075 123.989C86.313 125.855 85.5123 126.79 85.1539 127.942C84.7954 129.098 84.916 130.344 85.1572 132.833L85.3783 135.101C86.2259 143.868 86.6513 148.25 84.0853 150.196C81.5192 152.146 77.6601 150.367 69.9486 146.816L67.9487 145.898C65.7578 144.886 64.6624 144.384 63.5 144.384C62.3376 144.384 61.2421 144.886 59.0479 145.898L57.0547 146.816C49.3399 150.367 45.4808 152.143 42.9181 150.2C40.3487 148.25 40.7741 143.868 41.6217 135.101L41.8428 132.836C42.084 130.344 42.2045 129.098 41.8428 127.945C41.4877 126.79 40.687 125.855 39.0925 123.992L37.6386 122.291C32.0208 115.725 29.2136 112.438 30.1917 109.286C31.1733 106.134 35.2937 105.199 43.5345 103.336L45.665 102.854C48.0066 102.325 49.1757 102.06 50.1171 101.346C51.055 100.633 51.658 99.5507 52.864 97.3866L53.9628 95.4168Z" fill="white"/>
<path d="M88.8132 34.2482C93.607 27.6919 103.393 27.6919 108.187 34.2482L116.448 45.5467C117.929 47.5723 120.008 49.0827 122.392 49.8653L135.69 54.2308C143.407 56.764 146.431 66.071 141.677 72.6562L133.485 84.0045C132.016 86.039 131.222 88.4828 131.214 90.9922L131.172 104.989C131.147 113.111 123.23 118.863 115.498 116.376L102.174 112.091C99.7848 111.323 97.2152 111.323 94.8264 112.091L81.5018 116.376C73.7698 118.863 65.8528 113.111 65.8282 104.989L65.7858 90.9922C65.7782 88.4828 64.9842 86.039 63.5154 84.0045L55.3227 72.6562C50.5687 66.071 53.5927 56.764 61.3095 54.2308L74.6079 49.8653C76.9921 49.0827 79.0709 47.5723 80.552 45.5467L88.8132 34.2482Z" fill="#1D4ED8"/>
<path d="M88.0357 49.928C92.4701 41.976 94.6856 38 98 38C101.314 38 103.53 41.976 107.964 49.928L109.112 51.986C110.372 54.247 111.002 55.3776 111.982 56.1231C112.962 56.8686 114.187 57.1451 116.637 57.6981L118.863 58.2021C127.473 60.1516 131.774 61.1246 132.8 64.4181C133.822 67.7081 130.889 71.1416 125.019 78.0051L123.5 79.7796C121.834 81.7291 120.998 82.7056 120.623 83.9096C120.249 85.1171 120.375 86.4191 120.627 89.0197L120.858 91.3892C121.743 100.549 122.188 105.127 119.507 107.16C116.826 109.197 112.794 107.339 104.737 103.629L102.648 102.67C100.359 101.613 99.2145 101.088 98 101.088C96.7855 101.088 95.641 101.613 93.3486 102.67L91.2662 103.629C83.2058 107.339 79.1739 109.194 76.4965 107.164C73.8121 105.127 74.2566 100.549 75.142 91.3892L75.373 89.0232C75.625 86.4191 75.751 85.1171 75.373 83.9131C75.002 82.7056 74.1656 81.7291 72.4996 79.7831L70.9806 78.0051C65.1113 71.1451 62.1783 67.7116 63.2003 64.4181C64.2258 61.1246 68.5307 60.1481 77.1405 58.2021L79.3664 57.6981C81.8129 57.1451 83.0344 56.8686 84.0178 56.1231C84.9978 55.3776 85.6278 54.247 86.8878 51.986L88.0357 49.928Z" fill="white"/>
</svg>
